<?xml version="1.0" standalone="no"?>
<!DOCTYPE svg PUBLIC "-//W3C//DTD SVG 20010904//EN"
 "http://www.w3.org/TR/2001/REC-SVG-20010904/DTD/svg10.dtd">
<svg version="1.0" xmlns="http://www.w3.org/2000/svg"
 width="512.000000pt" height="512.000000pt" viewBox="0 0 512.000000 512.000000"
 preserveAspectRatio="xMidYMid meet">

<g transform="translate(0.000000,512.000000) scale(0.100000,-0.100000)"
fill="#000000" stroke="none">
<path d="M1780 4949 c-224 -38 -383 -248 -363 -479 l5 -56 -51 -31 c-38 -24
-49 -36 -45 -50 5 -14 4 -15 -4 -4 -8 12 -17 8 -50 -18 -138 -108 -252 -290
-304 -482 -19 -73 -22 -108 -23 -269 0 -165 2 -193 23 -257 22 -71 23 -72 48
-63 14 6 36 10 50 10 20 0 24 5 24 33 1 137 108 303 250 388 69 40 198 92 261
103 36 6 38 5 102 -72 144 -172 362 -359 564 -484 142 -88 453 -238 493 -238
9 0 11 102 8 388 -5 440 -8 461 -91 636 -75 157 -186 281 -337 378 -41 26 -69
48 -61 48 11 0 12 21 9 103 -3 89 -8 110 -35 167 -42 86 -84 135 -157 182 -94
61 -209 85 -316 67z m113 -426 c-24 -2 -62 -2 -85 0 -24 2 -5 4 42 4 47 0 66
-2 43 -4z m-166 -9 c-3 -3 -12 -4 -19 -1 -8 3 -5 6 6 6 11 1 17 -2 13 -5z
m280 0 c-3 -3 -12 -4 -19 -1 -8 3 -5 6 6 6 11 1 17 -2 13 -5z m223 -64 c8 -5
11 -10 5 -10 -5 0 -17 5 -25 10 -8 5 -10 10 -5 10 6 0 17 -5 25 -10z m-770
-400 c6 -11 8 -20 6 -20 -3 0 -10 9 -16 20 -6 11 -8 20 -6 20 3 0 10 -9 16
-20z m161 -247 c13 -16 12 -17 -3 -4 -10 7 -18 15 -18 17 0 8 8 3 21 -13z"/>
<path d="M992 1985 c-394 -134 -468 -163 -532 -214 l-24 -19 42 -60 c56 -80
107 -189 134 -287 21 -76 22 -103 26 -577 l4 -498 394 0 394 0 0 900 c0 495
-3 900 -7 899 -5 0 -198 -65 -431 -144z m237 -148 c32 -39 19 -130 -21 -142
-10 -4 -30 0 -43 9 -21 14 -25 24 -25 69 0 29 5 58 12 65 16 16 63 15 77 -1z
m-3 -241 c18 -13 19 -30 22 -257 2 -134 0 -254 -3 -266 -3 -13 -16 -30 -30
-39 -23 -15 -27 -15 -50 0 l-25 16 0 265 c0 226 2 266 16 279 19 20 44 20 70
2z"/>
<path d="M2220 2091 l0 -41 118 1 117 1 -100 34 c-54 19 -107 36 -117 40 -15
4 -18 -1 -18 -35z"/>
</g>
</svg>
